<?xml version="1.0" standalone="no"?><!DOCTYPE svg PUBLIC "-//W3C//DTD SVG 1.1//EN" "http://www.w3.org/Graphics/SVG/1.1/DTD/svg11.dtd"><svg class="icon" width="200px" height="200.00px" viewBox="0 0 1024 1024" version="1.1" xmlns="http://www.w3.org/2000/svg"><path fill="#8a8a8a" d="M512.006651 63.84305c-247.124354 0-448.166159 201.041806-448.166159 448.152856 0 247.103888 201.041806 448.16002 448.166159 448.16002 247.110027 0 448.151833-201.057155 448.151833-448.16002C960.158485 264.885879 759.116679 63.84305 512.006651 63.84305zM281.679869 863.410512c25.908066-35.805484 62.865793-51.789527 119.819946-51.789527 33.636075 0 72.735581-27.345812 72.735581-62.580291l0-55.842843c12.160971 1.653663 24.728194 2.588965 37.7293 2.588965 10.886955 0 21.393239-0.772596 31.68463-1.939165l0 55.193043c0 35.235502 40.754193 62.580291 75.812663 62.580291 72.640414 0 101.978603 28.55229 119.441323 53.416584 0.107447 0.149403 0.272199 0.189312 0.379647 0.324388-65.591881 42.325991-143.57293 67.027579-227.276307 67.027579C427.014932 932.390559 347.89392 906.956284 281.679869 863.410512zM390.939295 474.238978l0-3.850701c0-36.225039 0.908696-85.831854 16.457834-124.944664 17.35425-43.756573 51.953256-65.020876 103.741759-65.020876 51.815109 0 84.61105 21.251 101.978603 64.99427 15.535835 39.086204 13.82896 88.691995 13.82896 124.904755l0 3.918239c0 3.152806 2.724041 6.209422 4.690836 8.676613l71.365374 87.146802c-25.244964 41.966811-92.625584 97.959056-191.038988 97.959056-98.384751 0-165.791977-55.992245-191.050244-97.959056l68.370157-87.146802C391.25038 480.4484 390.939295 477.390761 390.939295 474.238978zM761.922584 849.799516c-0.1361-0.231267-0.149403-0.48914-0.297782-0.705058C730.388381 804.571429 685.214529 783.855618 619.461989 783.855618c-20.539802 0-48.047296-17.21815-48.047296-34.814923l0-59.652612c79.310324-17.367553 137.079028-67.407226 160.640654-114.552989 2.428306-4.846378 1.805112-10.662851-1.570775-14.886035l-72.478731-90.576925c0.039909-38.388309-0.094144-90.537016-17.434068-134.211724-21.747303-54.737672-65.021899-82.504062-128.607076-82.504062-63.583131 0-106.845447 27.765367-128.591727 82.537831-17.3389 43.668569-17.475 95.789647-17.434068 134.177955l-72.505337 90.576925c-3.375887 4.223185-3.986801 10.039657-1.572822 14.886035 22.966061 45.925982 78.456886 94.488001 154.608264 113.035426l0 61.170175c0 18.410302-25.13547 34.814923-44.969191 34.814923-65.957201 0-111.2385 20.159132-142.473899 63.462381-0.027629 0.040932-0.027629 0.095167-0.054235 0.121773-101.57235-76.788897-167.365822-198.561311-167.365822-335.443865 0-231.804437 188.597379-420.387489 420.401816-420.387489 231.80239 0 420.387489 188.583053 420.387489 420.387489C932.393117 650.260947 865.270371 773.118066 761.922584 849.799516z" /></svg>