<?xml version="1.0" standalone="no"?><!DOCTYPE svg PUBLIC "-//W3C//DTD SVG 1.1//EN" "http://www.w3.org/Graphics/SVG/1.1/DTD/svg11.dtd"><svg class="icon" width="200px" height="200.00px" viewBox="0 0 1024 1024" version="1.1" xmlns="http://www.w3.org/2000/svg"><path fill="#8a8a8a" d="M942.77 960c-4.41 0-8.82-1.68-12.18-5.05L706.52 730.89C638.24 793.35 547.37 831.5 447.75 831.5 236.14 831.5 64 659.35 64 447.75S236.14 64 447.75 64s383.76 172.15 383.76 383.75c0 99.62-38.16 190.49-100.62 258.77l224.07 224.07c6.73 6.73 6.73 17.63 0 24.37a17.211 17.211 0 0 1-12.19 5.04zM447.75 98.46c-192.6 0-349.29 156.69-349.29 349.28 0 192.6 156.69 349.29 349.29 349.29 192.61 0 349.3-156.69 349.3-349.29 0-192.59-156.69-349.28-349.3-349.28zM172.06 464.98c-9.52 0-17.23-7.72-17.23-17.23 0-161.52 131.4-292.92 292.92-292.92 9.52 0 17.23 7.72 17.23 17.23s-7.72 17.23-17.23 17.23c-142.52 0-258.46 115.95-258.46 258.46 0 9.51-7.72 17.23-17.23 17.23z"  /></svg>