<?xml version="1.0" standalone="no"?><!DOCTYPE svg PUBLIC "-//W3C//DTD SVG 1.1//EN" "http://www.w3.org/Graphics/SVG/1.1/DTD/svg11.dtd"><svg class="icon" width="200px" height="200.00px" viewBox="0 0 1024 1024" version="1.1" xmlns="http://www.w3.org/2000/svg"><path fill="#ffffff" d="M483.2 480l-89.6 224h41.6l22.4-57.6h99.2L576 704h41.6L528 480h-44.8z m-16 137.6l38.4-99.2 38.4 99.2h-76.8zM192 512h76.8v192h38.4V512h80v-32H192z m592 73.6c12.8-3.2 22.4-9.6 28.8-19.2 6.4-9.6 9.6-19.2 9.6-32 0-16-6.4-32-19.2-41.6-12.8-9.6-32-16-54.4-16H640v224h108.8c25.6 0 44.8-3.2 57.6-12.8 16-9.6 25.6-28.8 25.6-51.2 0-16-3.2-28.8-12.8-35.2-6.4-6.4-19.2-12.8-35.2-16z m-105.6-76.8h60.8c16 0 28.8 3.2 35.2 6.4 6.4 3.2 9.6 12.8 9.6 22.4 0 12.8-3.2 19.2-9.6 25.6-6.4 6.4-19.2 6.4-35.2 6.4h-60.8v-60.8z m99.2 160c-9.6 3.2-19.2 6.4-35.2 6.4h-64v-70.4h64c16 0 28.8 3.2 38.4 9.6 6.4 6.4 12.8 16 12.8 28.8 0 9.6-6.4 19.2-16 25.6zM96 128h384c19.2 0 32-12.8 32-32s-16-32-32-32H96c-19.2 0-32 12.8-32 32s16 32 32 32z"  /><path fill="#ffffff" d="M896 192H128c-35.2 0-64 28.8-64 64v640c0 35.2 28.8 64 64 64h768c35.2 0 64-28.8 64-64V256c0-35.2-28.8-64-64-64z m0 672c0 16-12.8 32-32 32H160c-19.2 0-32-16-32-32V288c0-16 12.8-32 32-32h704c19.2 0 32 16 32 32v576z"  /></svg>